HIERARCHY
ROOT Hips
{
	OFFSET 0.000000 0.000000 0.000000
	CHANNELS 6 Xposition Yposition Zposition Xrotation Yrotation Zrotation
	JOINT LeftUpLeg_virtual
	{
		OFFSET 0.000000 0.000000 0.000000
		CHANNELS 3 Xrotation Yrotation Zrotation
		JOINT LeftUpLeg
		{
			OFFSET 13.026900 -6.336304 -1.092800
			CHANNELS 3 Xrotation Yrotation Zrotation
			JOINT LeftLeg
			{
				OFFSET 0.524474 -46.096886 9.782700
				CHANNELS 3 Xrotation Yrotation Zrotation
				JOINT LeftFoot
				{
					OFFSET -0.524474 -53.427422 -12.948200
					CHANNELS 3 Xrotation Yrotation Zrotation
					JOINT LeftToeBase
					{
						OFFSET 0.192200 -14.009700 16.364100
						CHANNELS 3 Xrotation Yrotation Zrotation
						JOINT LeftToe_End
						{
							OFFSET -1.784700 -0.561700 9.474800
							CHANNELS 3 Xrotation Yrotation Zrotation
							End Site
							{
								OFFSET 0 0 0
							}
						}
					}
				}
			}
		}
	}
	JOINT RightUpLeg_virtual
	{
		OFFSET 0.000000 0.000000 0.000000
		CHANNELS 3 Xrotation Yrotation Zrotation
		JOINT RightUpLeg
		{
			OFFSET -12.883000 -6.336304 -1.092800
			CHANNELS 3 Xrotation Yrotation Zrotation
			JOINT RightLeg
			{
				OFFSET -0.524587 -46.096825 9.782800
				CHANNELS 3 Xrotation Yrotation Zrotation
				JOINT RightFoot
				{
					OFFSET 0.524587 -53.427383 -12.948300
					CHANNELS 3 Xrotation Yrotation Zrotation
					JOINT RightToeBase
					{
						OFFSET -0.192200 -14.009700 16.364100
						CHANNELS 3 Xrotation Yrotation Zrotation
						JOINT RightToe_End
						{
							OFFSET 1.784700 -0.561700 9.474800
							CHANNELS 3 Xrotation Yrotation Zrotation
							End Site
							{
								OFFSET 0 0 0
							}
						}
					}
				}
			}
		}
	}
	JOINT Spine_virtual
	{
		OFFSET 0.000000 0.000000 0.000000
		CHANNELS 3 Xrotation Yrotation Zrotation
		JOINT Spine
		{
			OFFSET 0.072000 7.257294 -0.789700
			CHANNELS 3 Xrotation Yrotation Zrotation
			JOINT Spine1
			{
				OFFSET 0.000000 12.508769 -0.658067
				CHANNELS 3 Xrotation Yrotation Zrotation
				JOINT Spine1_split
				{
					OFFSET 0.000000 12.508769 -0.658067
					CHANNELS 3 Xrotation Yrotation Zrotation
					JOINT Spine2
					{
						OFFSET 0.000000 12.508769 -0.658067
						CHANNELS 3 Xrotation Yrotation Zrotation
						JOINT Neck_virtual
						{
							OFFSET 0.000000 0.000000 0.000000
							CHANNELS 3 Xrotation Yrotation Zrotation
							JOINT Neck
							{
								OFFSET 0.000000 14.033295 7.520400
								CHANNELS 3 Xrotation Yrotation Zrotation
								JOINT Head
								{
									OFFSET 0.000000 8.198502 5.703100
									CHANNELS 3 Xrotation Yrotation Zrotation
									JOINT HeadTop_End
									{
										OFFSET 0.000000 17.760803 13.332701
										CHANNELS 3 Xrotation Yrotation Zrotation
										End Site
										{
											OFFSET 0 0 0
										}
									}
								}
							}
						}
						JOINT LeftShoulder_virtual
						{
							OFFSET 0.000000 0.000000 0.000000
							CHANNELS 3 Xrotation Yrotation Zrotation
							JOINT LeftShoulder
							{
								OFFSET 6.292450 5.785301 -0.669000
								CHANNELS 3 Xrotation Yrotation Zrotation
								JOINT LeftShoulder_split
								{
									OFFSET 6.292450 5.785301 -0.669000
									CHANNELS 3 Xrotation Yrotation Zrotation
									JOINT LeftArm
									{
										OFFSET 13.907140 -6.093903 1.965100
										CHANNELS 3 Xrotation Yrotation Zrotation
										JOINT LeftForeArm
										{
											OFFSET 34.140198 0.000000 0.000000
											CHANNELS 3 Xrotation Yrotation Zrotation
											JOINT LeftHand
											{
												OFFSET 40.960209 0.000000 0.000000
												CHANNELS 3 Xrotation Yrotation Zrotation
												End Site
												{
													OFFSET 0 0 0
												}
											}
										}
									}
								}
							}
						}
						JOINT RightShoulder_virtual
						{
							OFFSET 0.000000 0.000000 0.000000
							CHANNELS 3 Xrotation Yrotation Zrotation
							JOINT RightShoulder
							{
								OFFSET -6.292450 5.785301 -0.669000
								CHANNELS 3 Xrotation Yrotation Zrotation
								JOINT RightShoulder_split
								{
									OFFSET -6.292450 5.785301 -0.669000
									CHANNELS 3 Xrotation Yrotation Zrotation
									JOINT RightArm
									{
										OFFSET -13.907140 -6.093903 1.965100
										CHANNELS 3 Xrotation Yrotation Zrotation
										JOINT RightForeArm
										{
											OFFSET -34.140198 0.000000 0.000000
											CHANNELS 3 Xrotation Yrotation Zrotation
											JOINT RightHand
											{
												OFFSET -40.960209 0.000000 0.000000
												CHANNELS 3 Xrotation Yrotation Zrotation
												End Site
												{
													OFFSET 0 0 0
												}
											}
										}
									}
								}
							}
						}
					}
				}
			}
		}
	}
}
MOTION
Frames: 6
Frame Time: 0.03333333
0.742383 114.762260 2.432892 0.000000 0.000000 0.000000 -5.336600 -7.807296 5.585735 -27.194127 6.716656 11.527559 21.381786 8.473139 0.751121 30.413029 8.957812 0.777170 -6.098029 -0.000005 -0.000006 0.000000 0.000000 0.000000 -5.336600 -7.807296 5.585735 -9.067073 -8.410550 13.305505 18.450064 -9.761245 -0.928025 -7.525531 -14.374056 -20.547361 -3.611934 -0.000017 -0.000005 0.000000 0.000000 0.000000 -5.336600 -7.807296 5.585735 0.564516 1.075122 -2.788088 0.947293 2.037201 -4.377105 0.000000 0.000000 0.000000 0.000000 0.000000 0.000000 0.968933 2.043659 -4.365421 2.884317 1.135687 4.005908 7.888285 9.350193 8.465891 0.000000 0.000000 0.000000 0.968933 2.043659 -4.365421 1.058071 -0.340530 -4.891288 0.000000 0.000000 0.000000 -16.372110 12.814410 -32.934014 0.000003 -24.507077 0.000011 0.000000 0.000000 0.000000 0.968933 2.043659 -4.365421 0.199128 -5.464831 5.846318 0.000000 0.000000 0.000000 -40.201206 28.677471 7.199770 -0.000012 4.457078 -0.000003 0.000000 0.000000 0.000000 
0.336946 114.789238 4.926765 0.000000 0.000000 0.000000 -5.639420 -13.611269 6.754858 -30.264968 7.054385 7.826277 23.086714 8.679798 0.746925 30.960291 6.801638 -3.955383 -1.953727 0.000001 0.000003 0.000000 0.000000 0.000000 -5.639420 -13.611269 6.754858 -7.409476 -7.951812 11.798841 21.046183 -9.572482 -0.780943 -9.220337 -11.468931 -17.812160 -4.090873 -0.000009 -0.000005 0.000000 0.000000 0.000000 -5.639420 -13.611269 6.754858 0.823646 1.455057 -3.481148 1.350766 2.961713 -4.730877 0.000000 0.000000 0.000000 0.000000 0.000000 0.000000 1.379869 2.974013 -4.712206 2.584064 1.463159 3.751656 7.038276 10.696998 8.064928 0.000000 0.000000 0.000000 1.379869 2.974013 -4.712206 0.757068 0.956893 -2.838910 0.000000 0.000000 0.000000 -19.446295 10.332252 -26.706625 0.000008 -27.039606 0.000002 0.000000 0.000000 0.000000 1.379869 2.974013 -4.712206 0.212557 -5.231001 5.754125 0.000000 0.000000 0.000000 -42.739519 34.146516 8.566000 0.000003 4.063298 -0.000005 0.000000 0.000000 0.000000 
-0.304279 114.808464 7.280575 0.000000 0.000000 0.000000 -6.016983 -19.157060 7.459508 -33.104298 7.994672 3.732400 24.683913 9.048775 0.824508 32.530678 6.338957 -8.458166 -0.420298 -0.000004 0.000002 0.000000 0.000000 0.000000 -6.016983 -19.157060 7.459508 -5.616599 -7.742206 10.414713 23.501566 -9.383898 -0.635962 -10.596938 -9.008720 -15.010008 -4.488559 0.000013 0.000006 0.000000 0.000000 0.000000 -6.016983 -19.157060 7.459508 1.099000 1.915026 -4.036382 1.780584 4.029427 -4.976537 0.000000 0.000000 0.000000 0.000000 0.000000 0.000000 1.816225 4.047997 -4.948808 2.395714 1.711541 3.497553 6.360600 11.646651 7.705536 0.000000 0.000000 0.000000 1.816225 4.047997 -4.948808 0.374557 2.240369 -0.806797 0.000000 0.000000 0.000000 -21.745717 7.692717 -20.829160 0.000010 -27.338013 0.000006 0.000000 0.000000 0.000000 1.816225 4.047997 -4.948808 0.214940 -5.027857 5.548213 0.000000 0.000000 0.000000 -45.098182 39.487728 9.681378 0.000007 3.811690 0.000000 0.000000 0.000000 0.000000 
-1.627892 114.936989 9.250870 0.000000 0.000000 0.000000 -6.533211 -23.878850 6.971105 -35.891900 10.021402 -0.873063 26.060959 9.553170 1.102568 36.117446 10.286876 -12.312682 -0.029483 -0.000001 0.000002 0.000000 0.000000 0.000000 -6.533211 -23.878850 6.971105 -2.968623 -8.469723 10.224876 24.530133 -9.192426 -0.515644 -10.228729 -7.439609 -12.945570 -5.969211 -0.000014 0.000001 0.000000 0.000000 0.000000 -6.533211 -23.878850 6.971105 1.419067 2.612850 -4.303345 2.289845 5.521896 -4.928586 0.000000 0.000000 0.000000 0.000000 0.000000 0.000000 2.330438 5.547313 -4.886230 2.482273 1.738872 3.187906 6.185647 11.407027 7.456867 0.000000 0.000000 0.000000 2.330438 5.547313 -4.886230 -0.055453 3.475715 1.151966 0.000000 0.000000 0.000000 -23.299823 5.427550 -15.271074 0.000005 -25.057492 -0.000005 0.000000 0.000000 0.000000 2.330438 5.547313 -4.886230 0.202357 -4.899200 5.112888 0.000000 0.000000 0.000000 -46.554860 44.438700 9.552655 -0.000005 4.022048 0.000002 0.000000 0.000000 0.000000 
-2.932259 114.638039 10.941685 0.000000 0.000000 0.000000 -6.754330 -27.836624 6.199077 -36.234666 13.007234 -6.324595 27.948716 9.910412 1.529091 39.745076 17.023663 -14.848468 -0.000002 -0.000005 0.000002 0.000000 0.000000 0.000000 -6.754330 -27.836624 6.199077 -1.051025 -9.499956 10.246889 25.745421 -8.326994 -0.417625 -9.552415 -6.887245 -11.598775 -8.760255 -0.000006 0.000004 0.000000 0.000000 0.000000 -6.754330 -27.836624 6.199077 1.485057 3.209344 -4.008285 2.346482 6.742626 -4.450813 0.000000 0.000000 0.000000 0.000000 0.000000 0.000000 2.378278 6.772460 -4.396689 2.934394 1.811402 2.740239 6.084957 11.244282 6.855534 0.000000 0.000000 0.000000 2.378278 6.772460 -4.396689 -0.322191 4.618095 2.850651 0.000000 0.000000 0.000000 -24.664812 6.113085 -10.966441 0.000004 -16.100171 0.000000 0.000000 0.000000 0.000000 2.378278 6.772460 -4.396689 0.161807 -4.855032 4.209507 0.000000 0.000000 0.000000 -46.379426 48.797119 7.972118 0.000004 4.644547 -0.000000 0.000000 0.000000 0.000000 
-4.732154 113.985588 12.623116 0.000000 0.000000 0.000000 -6.662142 -30.779100 5.332746 -34.883190 14.767205 -11.759660 29.032692 10.096792 1.953412 42.114028 24.202128 -14.735863 -4.788153 -0.000003 -0.000009 0.000000 0.000000 0.000000 -6.662142 -30.779100 5.332746 0.752319 -10.347331 10.806845 26.559319 -7.259586 -0.322743 -9.084574 -6.322654 -10.709832 -11.389895 -0.000014 -0.000000 0.000000 0.000000 0.000000 -6.662142 -30.779100 5.332746 1.293587 3.658563 -3.490756 1.978881 7.541615 -3.799291 0.000000 0.000000 0.000000 0.000000 0.000000 0.000000 1.995281 7.569951 -3.744545 3.545180 1.890670 2.253027 6.036937 11.098032 6.130331 0.000000 0.000000 0.000000 1.995281 7.569951 -3.744545 -0.515999 5.442540 4.132379 0.000000 0.000000 0.000000 -24.874135 9.020698 -6.868903 0.000008 -13.881331 -0.000001 0.000000 0.000000 0.000000 1.995281 7.569951 -3.744545 0.138524 -4.604022 3.421417 0.000000 0.000000 0.000000 -46.417467 52.440277 6.522579 -0.000006 4.776249 0.000005 0.000000 0.000000 0.000000 
